<svg width="164" height="21" viewBox="0 0 164 21" fill="none" xmlns="http://www.w3.org/2000/svg">
<path d="M45.5359 0.230469H45.7497C47.2462 0.230469 48.5289 0.53897 49.5978 1.07886C50.6667 1.61875 51.6644 2.39003 52.377 3.31555C53.0896 4.24108 53.6597 5.32085 54.0873 6.47775C54.5149 7.63466 54.6574 8.8687 54.6574 10.0256C54.6574 11.8766 54.3011 13.5734 53.5172 15.0389C52.7333 16.5043 51.5931 17.6612 50.0966 18.4324C48.6002 19.2037 46.7474 19.6665 44.5383 19.6665H43.9682H41.1177C40.7614 19.6665 40.4763 19.5122 40.2626 19.2808C40.0488 19.0495 39.9062 18.6638 39.9062 18.2782L39.9775 1.61875C39.9775 1.23311 40.12 0.924605 40.3338 0.693224C40.5476 0.461843 40.8326 0.307589 41.1889 0.307589L45.5359 0.230469ZM52.377 9.94847C52.377 8.25167 52.0207 6.94051 51.3794 5.86073C50.738 4.78095 49.8116 4.08682 48.6001 3.62405C47.3887 3.16129 46.0347 2.92992 44.3957 2.92992C44.0394 2.92992 43.6831 2.92992 43.3981 2.92992C43.113 2.92992 42.6855 2.92991 42.4004 3.00704L42.3291 16.967H43.9682C45.6784 16.967 47.1037 16.7356 48.3864 16.2729C49.6691 15.8101 50.6667 15.116 51.3794 14.1133C52.092 13.1107 52.377 11.7224 52.377 9.94847Z" fill="white"/>
<path d="M66.0552 19.8207C65.6989 19.8207 65.4138 19.6665 65.2001 19.4351C64.9863 19.2037 64.8438 18.8181 64.8438 18.5096V1.54163C64.8438 1.23312 64.9863 0.924612 65.2001 0.616104C65.4138 0.307596 65.6989 0.230469 66.0552 0.230469C66.4115 0.230469 66.7678 0.384723 66.9816 0.616104C67.1954 0.847485 67.3379 1.23311 67.3379 1.61875V18.5867C67.3379 18.9723 67.1954 19.2808 66.9816 19.5122C66.7678 19.7436 66.4115 19.8207 66.0552 19.8207Z" fill="white"/>
<path d="M89.9383 0.308594C90.2946 0.308594 90.5797 0.462848 90.7935 0.694229C91.0073 0.92561 91.1498 1.31124 91.1498 1.61975C91.1498 1.92826 91.0785 2.23677 90.8648 2.46815L85.8052 9.79522L91.4348 17.8164C91.5774 18.0478 91.7199 18.3563 91.7199 18.6648C91.7199 19.0505 91.5774 19.359 91.3636 19.5903C91.1498 19.8217 90.7935 19.976 90.5084 19.976C90.3659 19.976 90.1521 19.8989 89.9383 19.8217C89.7246 19.7446 89.582 19.5903 89.5108 19.4361L84.3087 12.0319L79.1779 19.4361C79.0353 19.5903 78.8928 19.7446 78.7503 19.8217C78.6078 19.8989 78.394 19.976 78.1802 19.976C77.8239 19.976 77.5388 19.8217 77.3251 19.5903C77.1113 19.359 76.9688 18.9733 76.9688 18.6648C76.9688 18.3563 77.04 18.0478 77.2538 17.8164L82.8122 9.79522L77.6814 2.46815C77.5388 2.23677 77.3963 1.92826 77.3963 1.61975C77.3963 1.23412 77.5388 0.92561 77.7526 0.694229C77.9664 0.462848 78.3227 0.308594 78.6078 0.308594C78.8215 0.308594 78.9641 0.385718 79.1779 0.462845C79.3916 0.539972 79.5342 0.694226 79.6054 0.848481L84.3087 7.55854L88.9407 0.925612C89.0832 0.771358 89.2257 0.617104 89.3683 0.539977C89.5108 0.46285 89.7958 0.308594 89.9383 0.308594Z" fill="white"/>
<path d="M100.414 1.61875C100.414 1.23311 100.557 0.924605 100.77 0.693224C100.984 0.461843 101.34 0.307589 101.626 0.307589L114.168 0.230469C114.524 0.230469 114.809 0.384723 115.023 0.616104C115.236 0.847485 115.379 1.23312 115.379 1.54163C115.379 1.85013 115.236 2.23577 115.023 2.46715C114.809 2.69853 114.453 2.85278 114.168 2.85278H109.179L109.108 18.4324C109.108 18.8181 108.965 19.1266 108.752 19.358C108.538 19.5893 108.182 19.7436 107.897 19.7436C107.611 19.7436 107.255 19.5893 107.041 19.358C106.828 19.1266 106.685 18.8181 106.685 18.4324L106.756 2.92991L101.697 3.00703C101.34 3.00703 101.055 2.85278 100.842 2.6214C100.628 2.39002 100.414 2.00438 100.414 1.61875Z" fill="white"/>
<path d="M137.812 18.741C137.812 19.1266 137.67 19.4351 137.456 19.6665C137.242 19.8979 136.957 20.0521 136.672 20.0521C136.458 20.0521 136.244 19.975 136.031 19.8207C135.817 19.6665 135.746 19.5122 135.674 19.4351C134.89 18.8181 134.249 18.2011 133.679 17.4298C133.109 16.6585 132.681 15.8873 132.254 15.0389C131.897 14.2676 131.541 13.6506 131.185 13.1878C130.829 12.725 130.401 12.4165 129.902 12.2623C129.403 12.108 128.762 11.9538 127.978 11.9538H126.838V18.5096C126.838 18.8952 126.695 19.2037 126.482 19.4351C126.268 19.6665 125.911 19.8207 125.626 19.8207C125.341 19.8207 124.985 19.6665 124.771 19.358C124.558 19.0495 124.415 18.741 124.415 18.3553L124.344 1.54163C124.344 1.15599 124.486 0.847485 124.7 0.616104C124.914 0.384723 125.27 0.230469 125.555 0.230469H128.904H129.19C130.615 0.230469 131.897 0.461845 133.038 0.924607C134.178 1.38737 135.033 2.08151 135.674 3.00703C136.316 3.93256 136.672 5.01234 136.672 6.40063C136.672 7.24903 136.529 8.0203 136.173 8.71444C135.817 9.40858 135.389 9.94847 134.89 10.4112C134.392 10.874 133.75 11.2596 133.18 11.491C133.465 11.8766 133.75 12.3394 134.035 12.9564C134.534 13.9591 134.962 14.8846 135.461 15.6559C135.959 16.4271 136.529 17.1213 137.242 17.6612C137.385 17.7383 137.527 17.8926 137.598 18.1239C137.67 18.3553 137.812 18.5096 137.812 18.741ZM129.261 2.92991H126.838V9.40858H129.261C130.829 9.40858 131.969 9.10007 132.895 8.63731C133.822 8.17455 134.178 7.40328 134.178 6.3235C134.178 5.24372 133.679 4.39533 132.753 3.85544C131.826 3.31555 130.757 2.92991 129.261 2.92991Z" fill="white"/>
<path d="M153.857 0.77127C153.928 0.539889 154.071 0.385637 154.356 0.231383C154.641 0.0771294 154.783 0 155.068 0C155.282 0 155.496 0.0771294 155.781 0.231383C156.066 0.385637 156.137 0.617016 156.28 0.77127L163.192 18.0477C163.263 18.202 163.335 18.4334 163.335 18.5876C163.335 18.9732 163.192 19.2818 162.978 19.5131C162.764 19.7445 162.408 19.8988 162.123 19.8988C161.909 19.8988 161.624 19.8216 161.41 19.6674C161.197 19.5131 161.054 19.2818 160.912 19.0504L158.774 13.6515L151.648 13.5743L149.439 19.0504C149.367 19.2818 149.225 19.436 148.94 19.6674C148.655 19.8988 148.512 19.8988 148.227 19.8988C147.871 19.8988 147.586 19.7445 147.372 19.5131C147.158 19.2818 147.016 18.8961 147.016 18.5876C147.016 18.4334 147.087 18.202 147.158 18.0477L153.857 0.77127ZM154.997 4.78187L152.503 11.0292L157.491 11.1063L154.997 4.78187Z" fill="white"/>
<path d="M14.3236 6.47775C13.9673 5.32085 13.3972 4.24108 12.6133 3.31555C11.8294 2.39003 10.903 1.61875 9.83408 1.07886C8.76516 0.53897 7.41119 0.230469 5.98596 0.230469H5.77218L1.35396 0.307589C0.997657 0.307589 0.712613 0.461843 0.498829 0.693224C0.285044 0.924605 0.142521 1.31024 0.142521 1.61875V2.92992H2.63667C2.99298 2.92992 3.34929 2.92991 3.63433 2.85278C3.91938 2.77566 4.34695 2.85278 4.632 2.85278C6.27101 2.85278 7.62498 3.08416 8.83643 3.54692C10.0479 4.00968 10.9743 4.78096 11.6156 5.78361C12.257 6.78626 12.6133 8.17455 12.6133 9.87135C12.6133 11.6453 12.257 13.0336 11.5444 14.0362C10.8318 15.0389 9.83409 15.8101 8.55138 16.1958C7.26868 16.5814 5.77218 16.8899 4.13316 16.8899H2.49415H0V18.2782C0 18.6638 0.142523 18.9723 0.356308 19.2808C0.570092 19.5894 0.926398 19.6665 1.21144 19.6665H4.0619H4.632C6.84111 19.6665 8.6939 19.2808 10.1904 18.4324C11.6869 17.584 12.8271 16.4271 13.6109 15.0389C14.3948 13.6506 14.7511 11.9538 14.7511 10.0256C14.8937 8.8687 14.6799 7.71178 14.3236 6.47775Z" fill="white"/>
<path d="M24.1574 17.6641L18.5277 9.64287L23.5873 2.31581C23.7298 2.08443 23.8724 1.77591 23.8724 1.46741C23.8724 1.08177 23.7298 0.773266 23.516 0.541885C23.3023 0.310504 22.9459 0.15625 22.6609 0.15625C22.5184 0.15625 22.3046 0.233375 22.0908 0.310502C21.877 0.387629 21.7345 0.541883 21.6632 0.696137L17.0312 7.32906V11.8796L22.1621 19.2837C22.3046 19.438 22.4471 19.5923 22.5896 19.6694C22.7322 19.7465 22.946 19.8236 23.1597 19.8236C23.516 19.8236 23.8011 19.6694 24.0149 19.438C24.2287 19.2066 24.3712 18.821 24.3712 18.5125C24.3712 18.204 24.2999 17.8955 24.1574 17.6641Z" fill="#F36546"/>
</svg>
